<?xml version="1.0" encoding="UTF-8" standalone="no"?>
<!DOCTYPE svg PUBLIC "-//W3C//DTD SVG 1.1//EN" "http://www.w3.org/Graphics/SVG/1.1/DTD/svg11.dtd">
<!-- Generated by Microsoft Visio, SVG Export component-tree.svg Page-1 -->
<svg xmlns="http://www.w3.org/2000/svg" xmlns:xlink="http://www.w3.org/1999/xlink" xmlns:ev="http://www.w3.org/2001/xml-events"
		xmlns:v="http://schemas.microsoft.com/visio/2003/SVGExtensions/" width="11in" height="8.5in" viewBox="0 0 792 612"
		xml:space="preserve" color-interpolation-filters="sRGB" class="st7">
	<v:documentProperties v:langID="1033" v:viewMarkup="false">
		<v:userDefs>
			<v:ud v:nameU="msvSubprocessMaster" v:prompt="" v:val="VT4(Rectangle)"/>
			<v:ud v:nameU="msvNoAutoConnect" v:val="VT0(1):26"/>
		</v:userDefs>
	</v:documentProperties>

	<style type="text/css">
	<![CDATA[
		.st1 {visibility:visible}
		.st2 {fill:#70ad47;fill-opacity:0.22;filter:url(#filter_2);stroke:#70ad47;stroke-opacity:0.22}
		.st3 {fill:#70ad47;stroke:#c7c8c8;stroke-width:0.25}
		.st4 {fill:#000000;font-family:Calibri;font-size:1.33333em}
		.st5 {font-size:1em}
		.st6 {stroke:#5b9bd5;stroke-linecap:round;stroke-linejoin:round;stroke-width:4}
		.st7 {fill:none;fill-rule:evenodd;font-size:12px;overflow:visible;stroke-linecap:square;stroke-miterlimit:3}
	]]>
	</style>

	<defs id="Filters">
		<filter id="filter_2">
			<feGaussianBlur stdDeviation="2"/>
		</filter>
	</defs>
	<g v:mID="0" v:index="1" v:groupContext="foregroundPage">
		<v:userDefs>
			<v:ud v:nameU="msvThemeOrder" v:val="VT0(0):26"/>
		</v:userDefs>
		<title>Page-1</title>
		<v:pageProperties v:drawingScale="1" v:pageScale="1" v:drawingUnits="0" v:shadowOffsetX="9" v:shadowOffsetY="-9"/>
		<v:layer v:name="Connector" v:index="0"/>
		<g id="shape1-1" v:mID="1" v:groupContext="shape" transform="translate(315,-432)">
			<title>Rectangle</title>
			<desc>Root Component</desc>
			<v:userDefs>
				<v:ud v:nameU="visVersion" v:val="VT0(15):26"/>
			</v:userDefs>
			<v:textBlock v:margins="rect(4,4,4,4)"/>
			<v:textRect cx="54" cy="585" width="108" height="54"/>
			<g id="shadow1-2" v:groupContext="shadow" v:shadowOffsetX="0.345598" v:shadowOffsetY="-1.97279" v:shadowType="1"
					transform="matrix(1,0,0,1,0.345598,1.97279)" class="st1">
				<rect x="0" y="558" width="108" height="54" class="st2"/>
			</g>
			<rect x="0" y="558" width="108" height="54" class="st3"/>
			<text x="38.54" y="580.2" class="st4" v:langID="1033"><v:paragraph v:horizAlign="1"/><v:tabList/>Root<v:newlineChar/><tspan
						x="15.64" dy="1.2em" class="st5">Component</tspan></text>		</g>
		<g id="shape2-8" v:mID="2" v:groupContext="shape" transform="translate(162,-324)">
			<title>Rectangle.2</title>
			<desc>Component</desc>
			<v:userDefs>
				<v:ud v:nameU="visVersion" v:val="VT0(15):26"/>
			</v:userDefs>
			<v:textBlock v:margins="rect(4,4,4,4)"/>
			<v:textRect cx="54" cy="585" width="108" height="54"/>
			<g id="shadow2-9" v:groupContext="shadow" v:shadowOffsetX="0.345598" v:shadowOffsetY="-1.97279" v:shadowType="1"
					transform="matrix(1,0,0,1,0.345598,1.97279)" class="st1">
				<rect x="0" y="558" width="108" height="54" class="st2"/>
			</g>
			<rect x="0" y="558" width="108" height="54" class="st3"/>
			<text x="15.64" y="589.8" class="st4" v:langID="1033"><v:paragraph v:horizAlign="1"/><v:tabList/>Component</text>		</g>
		<g id="shape3-14" v:mID="3" v:groupContext="shape" transform="translate(99,-216)">
			<title>Rectangle.3</title>
			<desc>Component</desc>
			<v:userDefs>
				<v:ud v:nameU="visVersion" v:val="VT0(15):26"/>
			</v:userDefs>
			<v:textBlock v:margins="rect(4,4,4,4)"/>
			<v:textRect cx="54" cy="585" width="108" height="54"/>
			<g id="shadow3-15" v:groupContext="shadow" v:shadowOffsetX="0.345598" v:shadowOffsetY="-1.97279" v:shadowType="1"
					transform="matrix(1,0,0,1,0.345598,1.97279)" class="st1">
				<rect x="0" y="558" width="108" height="54" class="st2"/>
			</g>
			<rect x="0" y="558" width="108" height="54" class="st3"/>
			<text x="15.64" y="589.8" class="st4" v:langID="1033"><v:paragraph v:horizAlign="1"/><v:tabList/>Component</text>		</g>
		<g id="shape4-20" v:mID="4" v:groupContext="shape" transform="translate(234,-216)">
			<title>Rectangle.4</title>
			<desc>Component</desc>
			<v:userDefs>
				<v:ud v:nameU="visVersion" v:val="VT0(15):26"/>
			</v:userDefs>
			<v:textBlock v:margins="rect(4,4,4,4)"/>
			<v:textRect cx="54" cy="585" width="108" height="54"/>
			<g id="shadow4-21" v:groupContext="shadow" v:shadowOffsetX="0.345598" v:shadowOffsetY="-1.97279" v:shadowType="1"
					transform="matrix(1,0,0,1,0.345598,1.97279)" class="st1">
				<rect x="0" y="558" width="108" height="54" class="st2"/>
			</g>
			<rect x="0" y="558" width="108" height="54" class="st3"/>
			<text x="15.64" y="589.8" class="st4" v:langID="1033"><v:paragraph v:horizAlign="1"/><v:tabList/>Component</text>		</g>
		<g id="shape5-26" v:mID="5" v:groupContext="shape" transform="translate(405,-216)">
			<title>Rectangle.5</title>
			<desc>Component</desc>
			<v:userDefs>
				<v:ud v:nameU="visVersion" v:val="VT0(15):26"/>
			</v:userDefs>
			<v:textBlock v:margins="rect(4,4,4,4)"/>
			<v:textRect cx="54" cy="585" width="108" height="54"/>
			<g id="shadow5-27" v:groupContext="shadow" v:shadowOffsetX="0.345598" v:shadowOffsetY="-1.97279" v:shadowType="1"
					transform="matrix(1,0,0,1,0.345598,1.97279)" class="st1">
				<rect x="0" y="558" width="108" height="54" class="st2"/>
			</g>
			<rect x="0" y="558" width="108" height="54" class="st3"/>
			<text x="15.64" y="589.8" class="st4" v:langID="1033"><v:paragraph v:horizAlign="1"/><v:tabList/>Component</text>		</g>
		<g id="shape6-32" v:mID="6" v:groupContext="shape" transform="translate(468,-324)">
			<title>Rectangle.6</title>
			<desc>Component</desc>
			<v:userDefs>
				<v:ud v:nameU="visVersion" v:val="VT0(15):26"/>
			</v:userDefs>
			<v:textBlock v:margins="rect(4,4,4,4)"/>
			<v:textRect cx="54" cy="585" width="108" height="54"/>
			<g id="shadow6-33" v:groupContext="shadow" v:shadowOffsetX="0.345598" v:shadowOffsetY="-1.97279" v:shadowType="1"
					transform="matrix(1,0,0,1,0.345598,1.97279)" class="st1">
				<rect x="0" y="558" width="108" height="54" class="st2"/>
			</g>
			<rect x="0" y="558" width="108" height="54" class="st3"/>
			<text x="15.64" y="589.8" class="st4" v:langID="1033"><v:paragraph v:horizAlign="1"/><v:tabList/>Component</text>		</g>
		<g id="shape7-38" v:mID="7" v:groupContext="shape" transform="translate(549,-216)">
			<title>Rectangle.7</title>
			<desc>Component</desc>
			<v:userDefs>
				<v:ud v:nameU="visVersion" v:val="VT0(15):26"/>
			</v:userDefs>
			<v:textBlock v:margins="rect(4,4,4,4)"/>
			<v:textRect cx="54" cy="585" width="108" height="54"/>
			<g id="shadow7-39" v:groupContext="shadow" v:shadowOffsetX="0.345598" v:shadowOffsetY="-1.97279" v:shadowType="1"
					transform="matrix(1,0,0,1,0.345598,1.97279)" class="st1">
				<rect x="0" y="558" width="108" height="54" class="st2"/>
			</g>
			<rect x="0" y="558" width="108" height="54" class="st3"/>
			<text x="15.64" y="589.8" class="st4" v:langID="1033"><v:paragraph v:horizAlign="1"/><v:tabList/>Component</text>		</g>
		<g id="shape8-44" v:mID="8" v:groupContext="shape" transform="translate(549,-126)">
			<title>Rectangle.8</title>
			<desc>Component</desc>
			<v:userDefs>
				<v:ud v:nameU="visVersion" v:val="VT0(15):26"/>
			</v:userDefs>
			<v:textBlock v:margins="rect(4,4,4,4)"/>
			<v:textRect cx="54" cy="585" width="108" height="54"/>
			<g id="shadow8-45" v:groupContext="shadow" v:shadowOffsetX="0.345598" v:shadowOffsetY="-1.97279" v:shadowType="1"
					transform="matrix(1,0,0,1,0.345598,1.97279)" class="st1">
				<rect x="0" y="558" width="108" height="54" class="st2"/>
			</g>
			<rect x="0" y="558" width="108" height="54" class="st3"/>
			<text x="15.64" y="589.8" class="st4" v:langID="1033"><v:paragraph v:horizAlign="1"/><v:tabList/>Component</text>		</g>
		<g id="shape9-50" v:mID="9" v:groupContext="shape" v:layerMember="0" transform="translate(216,-378)">
			<title>Dynamic connector</title>
			<path d="M0 612 L0 598.5 L153 598.5 L153 558" class="st6"/>
		</g>
		<g id="shape10-53" v:mID="10" v:groupContext="shape" v:layerMember="0" transform="translate(522,-378)">
			<title>Dynamic connector.10</title>
			<path d="M0 612 L0 598.5 L-153 598.5 L-153 558" class="st6"/>
		</g>
		<g id="shape11-56" v:mID="11" v:groupContext="shape" v:layerMember="0" transform="translate(153,-270)">
			<title>Dynamic connector.11</title>
			<path d="M0 612 L0 598.5 L63 598.5 L63 558" class="st6"/>
		</g>
		<g id="shape12-59" v:mID="12" v:groupContext="shape" v:layerMember="0" transform="translate(288,-270)">
			<title>Dynamic connector.12</title>
			<path d="M0 612 L0 598.5 L-72 598.5 L-72 558" class="st6"/>
		</g>
		<g id="shape13-62" v:mID="13" v:groupContext="shape" v:layerMember="0" transform="translate(459,-270)">
			<title>Dynamic connector.13</title>
			<path d="M0 612 L0 598.5 L63 598.5 L63 558" class="st6"/>
		</g>
		<g id="shape14-65" v:mID="14" v:groupContext="shape" v:layerMember="0" transform="translate(603,-270)">
			<title>Dynamic connector.14</title>
			<path d="M0 612 L0 598.5 L-81 598.5 L-81 558" class="st6"/>
		</g>
		<g id="shape15-68" v:mID="15" v:groupContext="shape" v:layerMember="0" transform="translate(594,-180)">
			<title>Dynamic connector.15</title>
			<path d="M9 612 L9 576" class="st6"/>
		</g>
	</g>
</svg>
