<?xml version="1.0" encoding="UTF-8" standalone="no"?>
<!DOCTYPE svg PUBLIC "-//W3C//DTD SVG 1.1//EN" "http://www.w3.org/Graphics/SVG/1.1/DTD/svg11.dtd">
<!-- Generated by Microsoft Visio, SVG Export smart-dump-components.svg Page-3 -->
<svg xmlns="http://www.w3.org/2000/svg" xmlns:xlink="http://www.w3.org/1999/xlink" xmlns:ev="http://www.w3.org/2001/xml-events"
		xmlns:v="http://schemas.microsoft.com/visio/2003/SVGExtensions/" width="11in" height="8.5in" viewBox="0 0 792 612"
		xml:space="preserve" color-interpolation-filters="sRGB" class="st10">
	<v:documentProperties v:langID="1033" v:viewMarkup="false">
		<v:userDefs>
			<v:ud v:nameU="msvSubprocessMaster" v:prompt="" v:val="VT4(Rectangle)"/>
			<v:ud v:nameU="msvNoAutoConnect" v:val="VT0(1):26"/>
		</v:userDefs>
	</v:documentProperties>

	<style type="text/css">
	<![CDATA[
		.st1 {visibility:visible}
		.st2 {fill:#70ad47;fill-opacity:0.22;filter:url(#filter_2);stroke:#70ad47;stroke-opacity:0.22}
		.st3 {fill:#70ad47;stroke:#c7c8c8;stroke-width:0.25}
		.st4 {fill:#000000;font-family:Calibri;font-size:1.33333em}
		.st5 {font-size:1em}
		.st6 {fill:#5b9bd5;fill-opacity:0.25;filter:url(#filter_2);stroke:#5b9bd5;stroke-opacity:0.25}
		.st7 {fill:#4f87bb;stroke:#40709c;stroke-width:0.75}
		.st8 {fill:none;stroke:none;stroke-width:0.25}
		.st9 {fill:#5b9bd5;font-family:Calibri;font-size:2.50001em}
		.st10 {fill:none;fill-rule:evenodd;font-size:12px;overflow:visible;stroke-linecap:square;stroke-miterlimit:3}
	]]>
	</style>

	<defs id="Filters">
		<filter id="filter_2">
			<feGaussianBlur stdDeviation="2"/>
		</filter>
	</defs>
	<g v:mID="5" v:index="3" v:groupContext="foregroundPage">
		<v:userDefs>
			<v:ud v:nameU="msvThemeOrder" v:val="VT0(0):26"/>
		</v:userDefs>
		<title>Page-3</title>
		<v:pageProperties v:drawingScale="1" v:pageScale="1" v:drawingUnits="0" v:shadowOffsetX="9" v:shadowOffsetY="-9"/>
		<v:layer v:name="Connector" v:index="0"/>
		<g id="shape1-1" v:mID="1" v:groupContext="shape" transform="translate(189,-384.75)">
			<title>Rectangle</title>
			<desc>“Container” Component</desc>
			<v:userDefs>
				<v:ud v:nameU="visVersion" v:val="VT0(15):26"/>
			</v:userDefs>
			<v:textBlock v:margins="rect(4,4,4,4)"/>
			<v:textRect cx="76.5" cy="573.75" width="153" height="76.5"/>
			<g id="shadow1-2" v:groupContext="shadow" v:shadowOffsetX="0.345598" v:shadowOffsetY="-1.97279" v:shadowType="1"
					transform="matrix(1,0,0,1,0.345598,1.97279)" class="st1">
				<rect x="0" y="535.5" width="153" height="76.5" class="st2"/>
			</g>
			<rect x="0" y="535.5" width="153" height="76.5" class="st3"/>
			<text x="37.8" y="568.95" class="st4" v:langID="1033"><v:paragraph v:horizAlign="1"/><v:tabList/>“Container”<v:newlineChar/><tspan
						x="38.14" dy="1.2em" class="st5">Component</tspan></text>		</g>
		<g id="shape2-8" v:mID="2" v:groupContext="shape" transform="translate(351,-267.75)">
			<title>Rectangle.2</title>
			<desc>“Presentation” Component</desc>
			<v:userDefs>
				<v:ud v:nameU="visVersion" v:val="VT0(15):26"/>
			</v:userDefs>
			<v:textBlock v:margins="rect(4,4,4,4)"/>
			<v:textRect cx="76.5" cy="573.75" width="153" height="76.5"/>
			<g id="shadow2-9" v:groupContext="shadow" v:shadowOffsetX="0.345598" v:shadowOffsetY="-1.97279" v:shadowType="1"
					transform="matrix(1,0,0,1,0.345598,1.97279)" class="st1">
				<rect x="0" y="535.5" width="153" height="76.5" class="st2"/>
			</g>
			<rect x="0" y="535.5" width="153" height="76.5" class="st3"/>
			<text x="28.14" y="568.95" class="st4" v:langID="1033"><v:paragraph v:horizAlign="1"/><v:tabList/>“Presentation”<v:newlineChar/><tspan
						x="38.14" dy="1.2em" class="st5">Component</tspan></text>		</g>
		<g id="shape3-15" v:mID="3" v:groupContext="shape" transform="translate(981,180) rotate(90)">
			<title>Bent Arrow</title>
			<v:userDefs>
				<v:ud v:nameU="visVersion" v:prompt="" v:val="VT0(15):26"/>
			</v:userDefs>
			<g id="shadow3-16" v:groupContext="shadow" v:shadowOffsetX="0.345598" v:shadowOffsetY="-1.97279" v:shadowType="1"
					transform="matrix(1,0,0,1,1.97279,-0.345598)" class="st1">
				<path d="M0 612 L14.4 612 L14.4 583.2 A21.5931 21.5931 0 0 1 36 561.6 L57.6 561.6 L57.6 568.8 L72 554.4 L57.6 540
							 L57.6 547.2 L36 547.2 A35.9885 35.9885 -180 0 0 0 583.2 L0 612 Z" class="st6"/>
			</g>
			<path d="M0 612 L14.4 612 L14.4 583.2 A21.5931 21.5931 0 0 1 36 561.6 L57.6 561.6 L57.6 568.8 L72 554.4 L57.6 540 L57.6
						 547.2 L36 547.2 A35.9885 35.9885 -180 0 0 0 583.2 L0 612 Z" class="st7"/>
		</g>
		<g id="shape4-20" v:mID="4" v:groupContext="shape" transform="translate(428,-405.25)">
			<title>Sheet.4</title>
			<desc>Properties (@Input)</desc>
			<v:textBlock v:margins="rect(4,4,4,4)"/>
			<v:textRect cx="76" cy="573.75" width="152" height="76.5"/>
			<rect x="0" y="535.5" width="152" height="76.5" class="st8"/>
			<text x="12.74" y="564.75" class="st9" v:langID="1033"><v:paragraph v:horizAlign="1"/><v:tabList/>Properties<v:newlineChar/><tspan
						x="21.05" dy="1.2em" class="st5">(</tspan>@Input)</text>		</g>
		<g id="shape6-24" v:mID="6" v:groupContext="shape" transform="translate(126,-243)">
			<title>Sheet.6</title>
			<desc>Events (@Output)</desc>
			<v:textBlock v:margins="rect(4,4,4,4)"/>
			<v:textRect cx="76" cy="573.75" width="152" height="76.5"/>
			<rect x="0" y="535.5" width="152" height="76.5" class="st8"/>
			<text x="35.67" y="564.75" class="st9" v:langID="1033"><v:paragraph v:horizAlign="1"/><v:tabList/>Events<v:newlineChar/><tspan
						x="9.87" dy="1.2em" class="st5">(</tspan>@Output)</text>		</g>
		<g id="shape7-28" v:mID="7" v:groupContext="shape" transform="translate(-286,315) rotate(-90)">
			<title>Bent Arrow.7</title>
			<v:userDefs>
				<v:ud v:nameU="visVersion" v:prompt="" v:val="VT0(15):26"/>
			</v:userDefs>
			<g id="shadow7-29" v:groupContext="shadow" v:shadowOffsetX="0.345598" v:shadowOffsetY="-1.97279" v:shadowType="1"
					transform="matrix(1,0,0,1,-1.97279,0.345598)" class="st1">
				<path d="M0 612 L14.4 612 L14.4 583.2 A21.5931 21.5931 0 0 1 36 561.6 L57.6 561.6 L57.6 568.8 L72 554.4 L57.6 540
							 L57.6 547.2 L36 547.2 A35.9885 35.9885 -180 0 0 0 583.2 L0 612 Z" class="st6"/>
			</g>
			<path d="M0 612 L14.4 612 L14.4 583.2 A21.5931 21.5931 0 0 1 36 561.6 L57.6 561.6 L57.6 568.8 L72 554.4 L57.6 540 L57.6
						 547.2 L36 547.2 A35.9885 35.9885 -180 0 0 0 583.2 L0 612 Z" class="st7"/>
		</g>
	</g>
</svg>
